<svg version="1.1" xmlns="http://www.w3.org/2000/svg" viewBox="0 0 1788.3980626905495 1640.8687370262223" width="1788.3980626905495" height="1640.8687370262223" filter="invert(93%) hue-rotate(180deg)">
  <!-- svg-source:excalidraw -->
  
  <defs>
    <style class="style-fonts">
      @font-face {
        font-family: "Virgil";
        src: url("https://file%2B.vscode-resource.vscode-cdn.net/Users/jay/.antigravity-ide/extensions/lrstanley.excalidraw-editor-3.7.4-universal/public//dist/excalidraw-assets/Virgil.woff2");
      }
      @font-face {
        font-family: "Cascadia";
        src: url("https://file%2B.vscode-resource.vscode-cdn.net/Users/jay/.antigravity-ide/extensions/lrstanley.excalidraw-editor-3.7.4-universal/public//dist/excalidraw-assets/Cascadia.woff2");
      }
      @font-face {
        font-family: "Assistant";
        src: url("https://file%2B.vscode-resource.vscode-cdn.net/Users/jay/.antigravity-ide/extensions/lrstanley.excalidraw-editor-3.7.4-universal/public//dist/excalidraw-assets/Assistant-Regular.woff2");
      }
    </style>
    
  </defs>
  <g stroke-linecap="round" transform="translate(1543.8392663980321 10) rotate(0 83.45973336003271 51.690107342325234)"><path d="M25.85 0 C52.08 -2.07, 76.32 -3.71, 141.07 0 C160.36 -1.24, 164.69 9.9, 166.92 25.85 C166.64 42.24, 164.24 61.9, 166.92 77.54 C165.45 91.93, 161.45 101.11, 141.07 103.38 C99.16 101.51, 63.07 105.42, 25.85 103.38 C11.86 101.25, 3.22 92.84, 0 77.54 C0.53 61.75, -0.17 52.14, 0 25.85 C2.39 9.13, 11.69 -2.66, 25.85 0" stroke="none" stroke-width="0" fill="#15aabf"></path><path d="M25.85 0 C61.46 -0.22, 96.74 0.11, 141.07 0 M141.07 0 C158.73 0.84, 165.53 9.16, 166.92 25.85 M166.92 25.85 C166.87 41.75, 168.22 59.51, 166.92 77.54 M166.92 77.54 C167.1 94.86, 158.15 102.92, 141.07 103.38 M141.07 103.38 C97.8 101.49, 56.69 104.5, 25.85 103.38 M25.85 103.38 C7.94 104.18, -0.46 95.82, 0 77.54 M0 77.54 C-1.59 59.14, -2 40.24, 0 25.85 M0 25.85 C-1.79 7.74, 6.62 -0.99, 25.85 0" stroke="#1971c2" stroke-width="2.5" fill="none" stroke-dasharray="8 10"></path></g><g stroke-linecap="round" transform="translate(1254.9495390162338 448.2333933463747) rotate(0 109.89609248320585 309.4867608969265)"><path d="M32 0 C94.63 1.15, 150.52 3.88, 187.79 0 C209.36 -3.42, 218.85 9.15, 219.79 32 C215.58 171.39, 217.06 311.1, 219.79 586.97 C222.06 607.46, 210.73 621.03, 187.79 618.97 C139.53 613.95, 94.94 620.5, 32 618.97 C9 622.39, -0.44 610.44, 0 586.97 C-1.59 440.86, -3.69 294.65, 0 32 C-2.68 7.39, 13.65 -1.48, 32 0" stroke="none" stroke-width="0" fill="#ffec99"></path><path d="M32 0 C78.25 -0.55, 125.31 0.14, 187.79 0 M32 0 C79.02 1.88, 125.7 0.88, 187.79 0 M187.79 0 C208.93 -0.64, 219.37 11.56, 219.79 32 M187.79 0 C211.26 -0.06, 219.93 11.82, 219.79 32 M219.79 32 C218.25 219.96, 218.17 406.74, 219.79 586.97 M219.79 32 C218.47 165.56, 218.43 298.8, 219.79 586.97 M219.79 586.97 C218.78 607.76, 210.37 620.14, 187.79 618.97 M219.79 586.97 C219.47 609.79, 210.22 620.61, 187.79 618.97 M187.79 618.97 C152.35 619.11, 118.12 619.37, 32 618.97 M187.79 618.97 C141.07 619.46, 94.64 618.73, 32 618.97 M32 618.97 C10.96 619.45, -0.99 607.1, 0 586.97 M32 618.97 C12.51 618.06, 1.99 607.55, 0 586.97 M0 586.97 C2.86 410.39, 2.5 235.6, 0 32 M0 586.97 C-1.45 413.48, -2.05 239.3, 0 32 M0 32 C0.3 11.61, 8.85 -1.52, 32 0 M0 32 C-2.04 9.38, 12.12 0.88, 32 0" stroke="#1971c2" stroke-width="2" fill="none"></path></g><g transform="translate(1281.6481431340696 411.8260210070399) rotate(0 58.33995056152344 12.5)"><text x="0" y="0" font-family="Virgil, Segoe UI Emoji" font-size="20px" fill="#1971c2" text-anchor="start" style="white-space: pre;" direction="ltr" dominant-baseline="text-before-edge">Timer heap </text></g><g stroke-linecap="round" transform="translate(1274.872479604796 278.49650532970753) rotate(0 71.0546875 37.55730497614027)"><path d="M18.78 0 C45.26 0.1, 71.21 -1.57, 123.33 0 C136.22 0.7, 141.7 8.98, 142.11 18.78 C144.97 31.68, 144.41 35.74, 142.11 56.34 C143.36 72.15, 135.06 72.7, 123.33 75.11 C90.44 77.05, 58.46 72.82, 18.78 75.11 C6.52 74.77, -0.48 71.26, 0 56.34 C0.55 42.23, -1.81 35.15, 0 18.78 C-2.15 3.95, 7.04 -3.04, 18.78 0" stroke="none" stroke-width="0" fill="#ffec99"></path><path d="M18.78 0 C56.06 2.3, 95.56 1.18, 123.33 0 M18.78 0 C49.41 0.69, 80.42 0.5, 123.33 0 M123.33 0 C136.65 -1.18, 142.76 4.69, 142.11 18.78 M123.33 0 C136.18 -0.47, 142.46 8.06, 142.11 18.78 M142.11 18.78 C141.39 31.18, 141.68 39.82, 142.11 56.34 M142.11 18.78 C142.49 31.87, 141.96 44.56, 142.11 56.34 M142.11 56.34 C143.47 67.22, 136.79 73.6, 123.33 75.11 M142.11 56.34 C142.17 69.31, 136.75 75.36, 123.33 75.11 M123.33 75.11 C87.8 73.95, 55.44 74.07, 18.78 75.11 M123.33 75.11 C93.53 76.68, 62.1 75.25, 18.78 75.11 M18.78 75.11 C7.44 76.49, 1.03 68.11, 0 56.34 M18.78 75.11 C5.21 76.29, 2.11 68.54, 0 56.34 M0 56.34 C-1.47 46.86, -1.52 40.09, 0 18.78 M0 56.34 C0.59 48.95, 1.21 40.29, 0 18.78 M0 18.78 C-1.01 5.04, 5.47 1.69, 18.78 0 M0 18.78 C1.77 5.28, 8.32 -0.93, 18.78 0" stroke="#1971c2" stroke-width="2" fill="none"></path></g><g transform="translate(1288.3474091618045 307.6772330923179) rotate(0 59.23284912109375 21.339843749999986)"><text x="0" y="0" font-family="Virgil, Segoe UI Emoji" font-size="17.07187499999999px" fill="#1971c2" text-anchor="start" style="white-space: pre;" direction="ltr" dominant-baseline="text-before-edge">Load balancer</text><text x="0" y="21.33984374999999" font-family="Virgil, Segoe UI Emoji" font-size="17.07187499999999px" fill="#1971c2" text-anchor="start" style="white-space: pre;" direction="ltr" dominant-baseline="text-before-edge"></text></g><g stroke-linecap="round"><g transform="translate(1703.2638648604693 128.56978685294587) rotate(0 27.947243650527298 49.76738531752517)"><path d="M1.12 0.61 C10.45 8.58, 51.98 31.55, 56.31 48.02 C60.64 64.48, 31.93 90.89, 27.09 99.41 M0.25 -0.11 C9.43 7.96, 51.24 32.32, 55.58 49.12 C59.92 65.91, 30.96 92.17, 26.29 100.66" stroke="#1971c2" stroke-width="2" fill="none"></path></g><g transform="translate(1703.2638648604693 128.56978685294587) rotate(0 27.947243650527298 49.76738531752517)"><path d="M35.39 72.98 C33.47 82.86, 28.07 91.17, 26.29 100.66 M35.39 72.98 C33.16 80.36, 30.73 88.48, 26.29 100.66" stroke="#1971c2" stroke-width="2" fill="none"></path></g><g transform="translate(1703.2638648604693 128.56978685294587) rotate(0 27.947243650527298 49.76738531752517)"><path d="M51.05 85.3 C43.96 91.27, 33.41 95.54, 26.29 100.66 M51.05 85.3 C44.28 89.07, 37.31 93.62, 26.29 100.66" stroke="#1971c2" stroke-width="2" fill="none"></path></g></g><mask></mask><g transform="translate(1558.083142460116 48.12109929805172) rotate(0 71.26993560791016 12.5)"><text x="0" y="0" font-family="Virgil, Segoe UI Emoji" font-size="20px" fill="#1971c2" text-anchor="start" style="white-space: pre;" direction="ltr" dominant-baseline="text-before-edge">Timer Request</text></g><g stroke-linecap="round" transform="translate(1271.8226795502012 506.434968675469) rotate(0 96.9961272941573 80.14817309311331)"><path d="M32 0 C71.52 -2.13, 104.97 1.01, 161.99 0 C184.33 -3.42, 192.03 13.95, 193.99 32 C192.1 53.59, 197.09 77.49, 193.99 128.3 C195.85 150.59, 186.64 160.49, 161.99 160.3 C132.39 163.55, 107.26 156.8, 32 160.3 C8.31 157.42, 2.62 152.05, 0 128.3 C-1.03 98.91, 2.44 67.93, 0 32 C3.41 7.61, 10.44 -1.43, 32 0" stroke="none" stroke-width="0" fill="#ffec99"></path><path d="M32 0 C56.65 -1.07, 86.77 0.43, 161.99 0 M32 0 C58.97 0.54, 85.78 1.43, 161.99 0 M161.99 0 C182.64 -0.35, 194.9 9.09, 193.99 32 M161.99 0 C183.72 -0.66, 191.91 11, 193.99 32 M193.99 32 C194.96 54.37, 193.38 73.42, 193.99 128.3 M193.99 32 C194.9 69, 194.17 104.56, 193.99 128.3 M193.99 128.3 C194.2 149.78, 184.16 160.46, 161.99 160.3 M193.99 128.3 C195.7 150.79, 182.3 161.72, 161.99 160.3 M161.99 160.3 C116.73 158.61, 69.01 160.53, 32 160.3 M161.99 160.3 C120.08 161.08, 77.63 160.98, 32 160.3 M32 160.3 C8.67 161.16, 0.28 148.52, 0 128.3 M32 160.3 C12.91 161.34, 1.56 150.17, 0 128.3 M0 128.3 C0.52 100.25, 2 70.07, 0 32 M0 128.3 C-0.22 103.61, 0.38 80.02, 0 32 M0 32 C-0.79 12.13, 11.38 -0.12, 32 0 M0 32 C-1.66 9.17, 9.91 -1.69, 32 0" stroke="#1971c2" stroke-width="2" fill="none"></path></g><g transform="translate(1342.488835530882 574.0831417685823) rotate(0 26.329971313476562 12.5)"><text x="26.329971313476562" y="0" font-family="Virgil, Segoe UI Emoji" font-size="20px" fill="#1971c2" text-anchor="middle" style="white-space: pre;" direction="ltr" dominant-baseline="text-before-edge">Timer</text></g><g stroke-linecap="round" transform="translate(263.7007063423989 320.01921848362167) rotate(0 489.88576320232755 388.07659681032925)"><path d="M32 0 C254.54 -4.53, 477.98 -3.82, 947.77 0 C967.52 -2.94, 977.44 13.64, 979.77 32 C975.16 270.09, 974.8 508.46, 979.77 744.15 C976.52 766.66, 969.79 778.5, 947.77 776.15 C698.76 771.47, 451.3 768.99, 32 776.15 C9 779.03, -2.66 767.43, 0 744.15 C-5.08 581.53, -2.57 416.58, 0 32 C-0.04 12.71, 9.57 -1.8, 32 0" stroke="none" stroke-width="0" fill="#a5d8ff"></path><path d="M32 0 C350.08 -0.5, 666.63 -1.18, 947.77 0 M947.77 0 C970.76 -0.44, 980.42 9.73, 979.77 32 M979.77 32 C982.09 228.91, 982.03 425.62, 979.77 744.15 M979.77 744.15 C980.72 766.22, 970.12 774.28, 947.77 776.15 M947.77 776.15 C636.14 774.48, 324.17 773.64, 32 776.15 M32 776.15 C9.39 774.87, -0.78 764.96, 0 744.15 M0 744.15 C-3.2 531.83, -3.02 320.24, 0 32 M0 32 C-0.14 9.18, 12.22 1.36, 32 0" stroke="#1971c2" stroke-width="2.5" fill="none" stroke-dasharray="8 10"></path></g><g stroke-linecap="round" transform="translate(702.1350732944472 790.3231244353774) rotate(0 70.17229726994174 32.80518185463458)"><path d="M16.4 0 C45.14 -1.91, 69.71 2.2, 123.94 0 C135.15 1.24, 142.22 2.11, 140.34 16.4 C142.22 27.36, 137.56 36.73, 140.34 49.21 C140.48 58.94, 135.19 63.34, 123.94 65.61 C101.37 63.49, 81.03 61.31, 16.4 65.61 C8.53 66.55, -2.91 59.3, 0 49.21 C-3.23 37.34, 1.79 29.07, 0 16.4 C-3.44 7.33, 7.5 1.58, 16.4 0" stroke="none" stroke-width="0" fill="#ffec99"></path><path d="M16.4 0 C44.29 1.67, 70.74 -1.27, 123.94 0 M16.4 0 C47.69 0.32, 79.76 -0.38, 123.94 0 M123.94 0 C132.96 -2, 142.18 5.97, 140.34 16.4 M123.94 0 C134.2 -1.11, 141.73 5.17, 140.34 16.4 M140.34 16.4 C138.89 27.78, 142.26 42.78, 140.34 49.21 M140.34 16.4 C141.18 28.58, 140.52 40.59, 140.34 49.21 M140.34 49.21 C138.39 61.6, 136.11 67.43, 123.94 65.61 M140.34 49.21 C141.34 59.08, 135.08 67.52, 123.94 65.61 M123.94 65.61 C95.85 63.87, 71.74 63.69, 16.4 65.61 M123.94 65.61 C89.28 65.16, 55.62 65.44, 16.4 65.61 M16.4 65.61 C5.75 63.95, -1.72 60.05, 0 49.21 M16.4 65.61 C6.84 66.85, 1.37 61.88, 0 49.21 M0 49.21 C-1.4 37.26, -1.74 26.68, 0 16.4 M0 49.21 C0.79 36.89, -0.73 23.35, 0 16.4 M0 16.4 C-0.91 7.04, 6.76 1.55, 16.4 0 M0 16.4 C1.66 7.75, 3.99 0.82, 16.4 0" stroke="#1971c2" stroke-width="2" fill="none"></path></g><g transform="translate(716.6633235153706 811.5291232310273) rotate(0 58.469459533691406 21.074835623182594)"><text x="0" y="0" font-family="Virgil, Segoe UI Emoji" font-size="16.859868498546078px" fill="#1971c2" text-anchor="start" style="white-space: pre;" direction="ltr" dominant-baseline="text-before-edge">Load balancer</text><text x="0" y="21.074835623182597" font-family="Virgil, Segoe UI Emoji" font-size="16.859868498546078px" fill="#1971c2" text-anchor="start" style="white-space: pre;" direction="ltr" dominant-baseline="text-before-edge"></text></g><g stroke-linecap="round" transform="translate(373.7907139773175 500.17299580313556) rotate(0 81.01786955140261 276.6224991988167)"><path d="M32 0 C66.38 -4.09, 105.35 2.93, 130.04 0 C152.58 -1.08, 159.94 8.64, 162.04 32 C159.07 171.69, 157.98 310.21, 162.04 521.24 C161.57 540.32, 152.42 556.48, 130.04 553.24 C102.48 554.68, 69.53 552.16, 32 553.24 C12.3 549.93, 0.13 541.71, 0 521.24 C-2.69 352.78, -2.76 182.71, 0 32 C0.3 10.59, 8.15 1.12, 32 0" stroke="none" stroke-width="0" fill="#ffec99"></path><path d="M32 0 C57.01 1.25, 84.05 0.47, 130.04 0 M32 0 C57.83 0.67, 85.27 0.34, 130.04 0 M130.04 0 C151.04 1.35, 160.88 11.81, 162.04 32 M130.04 0 C150.09 -0.69, 162.21 12.84, 162.04 32 M162.04 32 C163.22 216.82, 164.44 402.42, 162.04 521.24 M162.04 32 C162.18 212.08, 161.74 392.33, 162.04 521.24 M162.04 521.24 C161.16 543.07, 149.42 552.39, 130.04 553.24 M162.04 521.24 C163.7 541.13, 151.87 555.12, 130.04 553.24 M130.04 553.24 C101.89 553.18, 74.19 550.92, 32 553.24 M130.04 553.24 C106.49 552.85, 82.33 553.44, 32 553.24 M32 553.24 C12.3 554.81, 1.22 544.56, 0 521.24 M32 553.24 C10.92 551.25, 1.7 541.86, 0 521.24 M0 521.24 C-0.3 421.6, 0.57 320.53, 0 32 M0 521.24 C1.56 330.79, 1.57 139.8, 0 32 M0 32 C-0.05 11.45, 10.15 -1.9, 32 0 M0 32 C1.17 9.9, 8.47 0.12, 32 0" stroke="#1971c2" stroke-width="2" fill="none"></path></g><g stroke-linecap="round" transform="translate(387.58090722944553 527.2143611708358) rotate(0 64.47367997333839 79.29350273324775)"><path d="M32 0 C44.21 1.32, 65.56 1.25, 96.95 0 C118.36 3.58, 131.61 13.22, 128.95 32 C128.37 62.68, 126.24 100.92, 128.95 126.59 C127.21 145.41, 118.37 157.53, 96.95 158.59 C81.11 156.62, 65.61 155.4, 32 158.59 C7.24 160.6, 3.43 147.62, 0 126.59 C3.81 91.06, -2.41 56.3, 0 32 C1.35 11.83, 8.81 -1.82, 32 0" stroke="none" stroke-width="0" fill="#ffec99"></path><path d="M32 0 C53.66 1.38, 76.54 1.14, 96.95 0 M32 0 C46.37 -0.58, 62.35 0.86, 96.95 0 M96.95 0 C116.96 0.89, 130.2 12.65, 128.95 32 M96.95 0 C119.95 0.17, 129.05 12.16, 128.95 32 M128.95 32 C128.23 68.64, 127.44 101.79, 128.95 126.59 M128.95 32 C128.1 57.95, 128.19 86.36, 128.95 126.59 M128.95 126.59 C127.89 146.52, 117.76 158.21, 96.95 158.59 M128.95 126.59 C128.64 148.59, 117.77 158.25, 96.95 158.59 M96.95 158.59 C72.56 158.37, 50.35 159.08, 32 158.59 M96.95 158.59 C81.87 159.13, 68.83 159.02, 32 158.59 M32 158.59 C11.64 160.37, 1.56 148.01, 0 126.59 M32 158.59 C8.42 157.32, -2.01 146.53, 0 126.59 M0 126.59 C-0.61 94.42, -0.56 61, 0 32 M0 126.59 C0.43 90.63, 0.22 53.48, 0 32 M0 32 C1.6 9.13, 11.6 1.41, 32 0 M0 32 C-1.44 10.41, 12.73 0.68, 32 0" stroke="#1971c2" stroke-width="2" fill="none"></path></g><g transform="translate(407.4387958819832 596.7759876816929) rotate(0 44.61579132080078 9.731876222390703)"><text x="44.61579132080078" y="0" font-family="Virgil, Segoe UI Emoji" font-size="15.571001955825123px" fill="#1971c2" text-anchor="middle" style="white-space: pre;" direction="ltr" dominant-baseline="text-before-edge">Http worker</text></g><g stroke-linecap="round" transform="translate(391.4346721385351 712.4648210947864) rotate(0 64.47367997333839 79.29350273324775)"><path d="M32 0 C52.55 2.58, 71.09 1.48, 96.95 0 C116.62 2.41, 127.96 12.6, 128.95 32 C129.21 54.49, 126.07 86.56, 128.95 126.59 C128.14 150.74, 117.86 158.65, 96.95 158.59 C83.49 158.47, 67.07 157.37, 32 158.59 C11.74 157.16, -1.47 149.87, 0 126.59 C-1.34 97.39, -1.35 75.02, 0 32 C1.46 13.84, 11.07 -3.51, 32 0" stroke="none" stroke-width="0" fill="#ffec99"></path><path d="M32 0 C47.1 -0.5, 62.8 -1.27, 96.95 0 M32 0 C53.29 -0.1, 75.4 0, 96.95 0 M96.95 0 C116.49 -1.11, 129.95 8.77, 128.95 32 M96.95 0 C118.15 -0.18, 130.22 9.03, 128.95 32 M128.95 32 C127.27 65.59, 130.01 101.38, 128.95 126.59 M128.95 32 C127.22 52.92, 129.07 73.89, 128.95 126.59 M128.95 126.59 C128.8 149.18, 118.92 158.85, 96.95 158.59 M128.95 126.59 C127.7 148.7, 116.34 159.61, 96.95 158.59 M96.95 158.59 C79.72 158.31, 61.09 157.1, 32 158.59 M96.95 158.59 C77.5 159.08, 58.35 158.21, 32 158.59 M32 158.59 C11.67 156.98, 0.8 145.98, 0 126.59 M32 158.59 C10.32 158.1, -0.37 147.15, 0 126.59 M0 126.59 C0.49 92.5, -0.7 61.1, 0 32 M0 126.59 C-1.44 90.82, -1.62 56.59, 0 32 M0 32 C-0.36 8.67, 10.12 -0.19, 32 0 M0 32 C0.58 8.54, 8.45 -0.6, 32 0" stroke="#1971c2" stroke-width="2" fill="none"></path></g><g transform="translate(411.2925607910728 782.0264476056435) rotate(0 44.61579132080078 9.73187622239071)"><text x="44.61579132080078" y="0" font-family="Virgil, Segoe UI Emoji" font-size="15.571001955825123px" fill="#1971c2" text-anchor="middle" style="white-space: pre;" direction="ltr" dominant-baseline="text-before-edge">Http worker</text></g><g stroke-linecap="round" transform="translate(391.37939788925996 882.7300602202472) rotate(0 64.47367997333839 79.29350273324775)"><path d="M32 0 C47.05 0.11, 64.53 -2.73, 96.95 0 C117.33 0.01, 128.22 8.12, 128.95 32 C129.43 54.39, 125.11 71.58, 128.95 126.59 C129.92 146.1, 120 156.22, 96.95 158.59 C79.65 159.59, 54.54 158.63, 32 158.59 C7.69 161.71, 3.33 147.3, 0 126.59 C-0.65 93.54, 0.36 64.4, 0 32 C1.22 7.6, 10.86 1.17, 32 0" stroke="none" stroke-width="0" fill="#ffec99"></path><path d="M32 0 C59.49 1.61, 85.56 -1.63, 96.95 0 M32 0 C54.77 0.57, 80.51 0.73, 96.95 0 M96.95 0 C117.67 0.03, 128.4 10.55, 128.95 32 M96.95 0 C117.02 1.72, 127.41 10.4, 128.95 32 M128.95 32 C130.14 52.29, 127.34 74.49, 128.95 126.59 M128.95 32 C129.06 53.52, 129.21 72.81, 128.95 126.59 M128.95 126.59 C129.8 146.81, 119.89 158.12, 96.95 158.59 M128.95 126.59 C127.85 146.26, 119.52 159.74, 96.95 158.59 M96.95 158.59 C82.85 157.61, 68.93 158.06, 32 158.59 M96.95 158.59 C78.12 159.07, 59.31 157.83, 32 158.59 M32 158.59 C11.27 159.76, -0.19 148.28, 0 126.59 M32 158.59 C8.63 157.44, -1.34 149.38, 0 126.59 M0 126.59 C-0.3 91.66, 1.61 52.92, 0 32 M0 126.59 C0.81 90.86, 0.38 53.63, 0 32 M0 32 C0.87 9.41, 10.12 0.97, 32 0 M0 32 C-0.33 11.27, 12.68 -0.46, 32 0" stroke="#1971c2" stroke-width="2" fill="none"></path></g><g transform="translate(411.23728654179763 952.2916867311043) rotate(0 44.61579132080078 9.731876222390696)"><text x="44.61579132080078" y="0" font-family="Virgil, Segoe UI Emoji" font-size="15.571001955825123px" fill="#1971c2" text-anchor="middle" style="white-space: pre;" direction="ltr" dominant-baseline="text-before-edge">Http worker</text></g><g stroke-linecap="round"><g transform="translate(690.2037577411113 823.218875421973) rotate(0 -74.52615659618505 11.484671767320322)"><path d="M-0.75 0.55 C-12.67 1.56, -46.74 3.28, -71.32 6.88 C-95.9 10.47, -135.43 19.58, -148.23 22.13 M1.06 -0.2 C-10.97 0.9, -46.88 4.34, -71.82 8.21 C-96.76 12.08, -135.97 20.56, -148.56 23" stroke="#1971c2" stroke-width="2" fill="none"></path></g><g transform="translate(690.2037577411113 823.218875421973) rotate(0 -74.52615659618505 11.484671767320322)"><path d="M-122.98 7.33 C-130.12 13.6, -139.86 18.55, -148.56 23 M-122.98 7.33 C-129.01 10.85, -134 14.8, -148.56 23" stroke="#1971c2" stroke-width="2" fill="none"></path></g><g transform="translate(690.2037577411113 823.218875421973) rotate(0 -74.52615659618505 11.484671767320322)"><path d="M-118.89 27.44 C-127.47 27.26, -138.52 25.8, -148.56 23 M-118.89 27.44 C-126.02 26.31, -131.95 25.64, -148.56 23" stroke="#1971c2" stroke-width="2" fill="none"></path></g></g><mask></mask><g stroke-linecap="round" transform="translate(969.1780293284244 454.31897928405044) rotate(0 127.05982703444943 302.00689594452126)"><path d="M32 0 C94.56 -5.25, 153 -5.11, 222.12 0 C244.83 -1.28, 256.01 12.57, 254.12 32 C256.66 227.83, 256.47 424.63, 254.12 572.01 C255.88 595.03, 246.27 607.34, 222.12 604.01 C158.35 601.51, 93.69 598.5, 32 604.01 C11.89 602.89, -1.82 591.23, 0 572.01 C-2.42 405.33, -2.56 239.77, 0 32 C3.09 8.04, 7.6 1.77, 32 0" stroke="none" stroke-width="0" fill="#ffec99"></path><path d="M32 0 C85.13 -2.67, 136.66 -2.16, 222.12 0 M32 0 C74.62 1.51, 115.67 1.64, 222.12 0 M222.12 0 C241.66 1.78, 252.3 12.14, 254.12 32 M222.12 0 C244.65 0.72, 253.79 10.45, 254.12 32 M254.12 32 C252.98 234.93, 252.2 437.12, 254.12 572.01 M254.12 32 C253.89 209.01, 254.01 386.2, 254.12 572.01 M254.12 572.01 C255.09 594.21, 242.28 604.16, 222.12 604.01 M254.12 572.01 C254.52 593.99, 245 602.83, 222.12 604.01 M222.12 604.01 C164.74 603.12, 105.08 605.43, 32 604.01 M222.12 604.01 C180.58 603.24, 138.79 601.92, 32 604.01 M32 604.01 C9.74 603.05, 0.23 593.53, 0 572.01 M32 604.01 C12.63 604, -1.99 593.95, 0 572.01 M0 572.01 C0.8 372.43, 1.94 174.92, 0 32 M0 572.01 C-2.15 440.26, -1.52 308.68, 0 32 M0 32 C-0.51 10.19, 12.08 0.68, 32 0 M0 32 C-1.29 8.55, 10.25 -2.04, 32 0" stroke="#1971c2" stroke-width="2" fill="none"></path></g><g transform="translate(996.9387178621612 420.13731969455716) rotate(0 52.6732177734375 12.34476917338172)"><text x="0" y="0" font-family="Virgil, Segoe UI Emoji" font-size="19.751630677410756px" fill="#1971c2" text-anchor="start" style="white-space: pre;" direction="ltr" dominant-baseline="text-before-edge">Timer heap</text></g><g stroke-linecap="round" transform="translate(1002.4357970072222 491.9995746058405) rotate(0 95.79158417266581 79.15285572021821)"><path d="M32 0 C67.39 4.95, 94.72 3.27, 159.58 0 C182.08 1.38, 188.21 10.44, 191.58 32 C191.49 68.41, 195.97 102.37, 191.58 126.31 C189.1 144.22, 179.16 159.25, 159.58 158.31 C131.84 157.19, 103.63 160.27, 32 158.31 C11.7 160.58, 1.23 148.7, 0 126.31 C-2.77 104.55, -3.68 83.08, 0 32 C3.3 8.65, 13.51 -0.24, 32 0" stroke="none" stroke-width="0" fill="#ffec99"></path><path d="M32 0 C79.99 -1.62, 124.23 0.36, 159.58 0 M32 0 C61.89 -0.1, 91.78 -0.71, 159.58 0 M159.58 0 C180.4 -1.2, 191.78 10.72, 191.58 32 M159.58 0 C182.3 1.58, 193.42 10.96, 191.58 32 M191.58 32 C192.02 70.25, 191.01 104.58, 191.58 126.31 M191.58 32 C191.22 52.02, 191.85 74.1, 191.58 126.31 M191.58 126.31 C192.62 148.87, 181.23 156.45, 159.58 158.31 M191.58 126.31 C189.92 146.04, 182.47 156.89, 159.58 158.31 M159.58 158.31 C121.56 158.41, 85.87 158.19, 32 158.31 M159.58 158.31 C114.48 159.86, 67.68 160.49, 32 158.31 M32 158.31 C10.01 156.82, -1.27 147.44, 0 126.31 M32 158.31 C10.1 156.11, 2.09 148.92, 0 126.31 M0 126.31 C-1.18 90.25, 1.33 57.78, 0 32 M0 126.31 C0.08 97.86, -0.34 70.61, 0 32 M0 32 C-0.08 12.18, 10.3 -0.88, 32 0 M0 32 C1.83 12.35, 9.03 -1.37, 32 0" stroke="#1971c2" stroke-width="2" fill="none"></path></g><g transform="translate(1072.2265266877005 558.807661152677) rotate(0 26.0008544921875 12.34476917338172)"><text x="26.0008544921875" y="0" font-family="Virgil, Segoe UI Emoji" font-size="19.751630677410756px" fill="#1971c2" text-anchor="middle" style="white-space: pre;" direction="ltr" dominant-baseline="text-before-edge">Timer</text></g><g stroke-linecap="round"><g transform="translate(988.532987338185 589.9354619912273) rotate(0 -73.23302755898214 93.64283439142727)"><path d="M-0.42 0.14 C-10.35 24.44, -35.52 114.42, -59.93 145.53 C-84.35 176.63, -132.67 179.99, -146.92 186.76 M1.56 -0.84 C-8.41 23.13, -35.38 112.21, -60.29 143.65 C-85.21 175.09, -133.86 180.63, -147.92 187.8" stroke="#1971c2" stroke-width="2" fill="none"></path></g><g transform="translate(988.532987338185 589.9354619912273) rotate(0 -73.23302755898214 93.64283439142727)"><path d="M-124.38 169.2 C-130.58 176.03, -136.42 178.45, -147.92 187.8 M-124.38 169.2 C-130.15 172.74, -136.99 178.03, -147.92 187.8" stroke="#1971c2" stroke-width="2" fill="none"></path></g><g transform="translate(988.532987338185 589.9354619912273) rotate(0 -73.23302755898214 93.64283439142727)"><path d="M-117.93 188.68 C-125.84 190.2, -133.42 187.35, -147.92 187.8 M-117.93 188.68 C-125.53 187.18, -134.01 187.47, -147.92 187.8" stroke="#1971c2" stroke-width="2" fill="none"></path></g></g><mask></mask><g transform="translate(350.039147501359 390.6337514393549) rotate(0 26.0008544921875 12.34476917338172)"><text x="0" y="0" font-family="Virgil, Segoe UI Emoji" font-size="19.751630677410756px" fill="#1971c2" text-anchor="start" style="white-space: pre;" direction="ltr" dominant-baseline="text-before-edge">Timer</text></g><g transform="translate(1107.2476324738986 1106.3358824647134) rotate(0 157.43991088867188 30.591179698055328)"><text x="0" y="0" font-family="Virgil, Segoe UI Emoji" font-size="48.9458875168885px" fill="#1971c2" text-anchor="start" style="white-space: pre;" direction="ltr" dominant-baseline="text-before-edge">Timer Heaps </text></g><g transform="translate(548.4145659368871 970.1452753084403) rotate(0 57.43397521972656 8.871922913766127)"><text x="0" y="0" font-family="Virgil, Segoe UI Emoji" font-size="14.195076662025807px" fill="#1971c2" text-anchor="start" style="white-space: pre;" direction="ltr" dominant-baseline="text-before-edge">Http worker pool</text></g><g transform="translate(10 167.51134635535755) rotate(0 485.15625 21.599999999999994)"><text x="0" y="0" font-family="Cascadia, Segoe UI Emoji" font-size="36px" fill="#1e1e1e" text-anchor="start" style="white-space: pre;" direction="ltr" dominant-baseline="text-before-edge">High level overview of the system architecture</text></g><g transform="translate(347.14669168939247 1585.8687370262223) rotate(0 304.37991333007807 22.5)"><text x="0" y="0" font-family="Virgil, Segoe UI Emoji" font-size="36px" fill="#2f9e44" text-anchor="start" style="white-space: pre;" direction="ltr" dominant-baseline="text-before-edge">2) How one single heap functions ?</text></g><g stroke-linecap="round" transform="translate(1547.516913415618 224.41908467055993) rotate(0 89.47525632871225 30.210721710895854)"><path d="M15.11 0 C62.7 3.24, 105.48 4.56, 163.85 0 C173.77 -2.4, 177.29 4.37, 178.95 15.11 C181.71 20.31, 177.69 30.54, 178.95 45.32 C181.85 51.92, 176.33 63.16, 163.85 60.42 C124.02 62.51, 80.47 57.23, 15.11 60.42 C5.01 60.19, -0.49 57.85, 0 45.32 C0.43 31.93, -3.86 20.18, 0 15.11 C-0.72 2.49, 6.28 -1.78, 15.11 0" stroke="none" stroke-width="0" fill="#ffec99"></path><path d="M15.11 0 C53.88 -2.87, 94.31 -0.7, 163.85 0 M15.11 0 C70.56 0.49, 125.97 -0.05, 163.85 0 M163.85 0 C173.82 0.57, 178.1 6.32, 178.95 15.11 M163.85 0 C173.66 -2.05, 177.42 5.34, 178.95 15.11 M178.95 15.11 C180.52 24.73, 178.82 36.67, 178.95 45.32 M178.95 15.11 C179.08 25.5, 179.88 36.77, 178.95 45.32 M178.95 45.32 C180.75 54.49, 174.6 59.53, 163.85 60.42 M178.95 45.32 C177.13 56, 172.39 60.05, 163.85 60.42 M163.85 60.42 C114.29 58.73, 64.32 58.07, 15.11 60.42 M163.85 60.42 C110.46 61.58, 56.36 61.76, 15.11 60.42 M15.11 60.42 C4.56 58.78, 0.94 53.95, 0 45.32 M15.11 60.42 C7.06 60.86, 1.53 56.1, 0 45.32 M0 45.32 C-0.14 35.77, -0.74 25.76, 0 15.11 M0 45.32 C0.32 39.89, 0.14 33.99, 0 15.11 M0 15.11 C-0.48 6.28, 5.56 1.09, 15.11 0 M0 15.11 C-2.03 2.8, 5.63 -1.61, 15.11 0" stroke="#2f9e44" stroke-width="2" fill="none"></path></g><g transform="translate(1580.05222833808 242.12980638145575) rotate(0 56.93994140625 12.5)"><text x="56.93994140625" y="0" font-family="Virgil, Segoe UI Emoji" font-size="20px" fill="#1971c2" text-anchor="middle" style="white-space: pre;" direction="ltr" dominant-baseline="text-before-edge">Http server</text></g><g stroke-linecap="round"><g transform="translate(1342.0186584469236 358.68316458784165) rotate(0 -82.19393569915758 39.8179073481044)"><path d="M-0.26 -0.43 C-8.27 6.84, -21.34 29.6, -48.66 42.82 C-75.98 56.03, -144.92 72.79, -164.18 78.85 M1.8 -1.7 C-5.79 5.32, -18.74 27.62, -46.51 41.2 C-74.29 54.78, -145.28 73.28, -164.83 79.76" stroke="#1971c2" stroke-width="2" fill="none"></path></g><g transform="translate(1342.0186584469236 358.68316458784165) rotate(0 -82.19393569915758 39.8179073481044)"><path d="M-140.75 61.88 C-147.57 64.47, -151.24 71.08, -164.83 79.76 M-140.75 61.88 C-146.51 65.1, -151.96 70.64, -164.83 79.76" stroke="#1971c2" stroke-width="2" fill="none"></path></g><g transform="translate(1342.0186584469236 358.68316458784165) rotate(0 -82.19393569915758 39.8179073481044)"><path d="M-134.89 81.54 C-143.04 79.23, -148.17 80.94, -164.83 79.76 M-134.89 81.54 C-142.06 80.13, -148.89 81.04, -164.83 79.76" stroke="#1971c2" stroke-width="2" fill="none"></path></g></g><mask></mask><g stroke-linecap="round"><g transform="translate(1627.3925739528654 289.32555459174506) rotate(0 -103.89242966074642 21.84457499822892)"><path d="M-1 0.12 C-11.34 7.29, -26.5 38.24, -60.86 43.59 C-95.23 48.94, -182.62 33.91, -207.2 32.23 M0.68 -0.86 C-9.38 6.46, -23.82 39.42, -58.54 45.07 C-93.26 50.73, -182.69 34.76, -207.66 33.05" stroke="#1971c2" stroke-width="2" fill="none"></path></g><g transform="translate(1627.3925739528654 289.32555459174506) rotate(0 -103.89242966074642 21.84457499822892)"><path d="M-178.44 26.24 C-189.86 27.48, -201.87 32.4, -207.66 33.05 M-178.44 26.24 C-184.03 28.17, -192.15 28.9, -207.66 33.05" stroke="#1971c2" stroke-width="2" fill="none"></path></g><g transform="translate(1627.3925739528654 289.32555459174506) rotate(0 -103.89242966074642 21.84457499822892)"><path d="M-180.9 46.61 C-191.43 39.75, -202.46 36.55, -207.66 33.05 M-180.9 46.61 C-185.85 44.04, -193.43 40.27, -207.66 33.05" stroke="#1971c2" stroke-width="2" fill="none"></path></g></g><mask></mask><g stroke-linecap="round" transform="translate(1004.0729811987726 686.4377407815376) rotate(0 96.9961272941573 80.14817309311331)"><path d="M32 0 C74.39 0.68, 120.91 2.35, 161.99 0 C181.06 -1.32, 197.07 13.69, 193.99 32 C189.89 61.21, 195.07 83.21, 193.99 128.3 C194.17 152.79, 186.02 158.79, 161.99 160.3 C136.85 156.75, 111.18 163.04, 32 160.3 C11.34 160.42, -0.43 149.99, 0 128.3 C0.15 97.59, -3.5 63.25, 0 32 C2.02 9.68, 13.5 -1.69, 32 0" stroke="none" stroke-width="0" fill="#ffec99"></path><path d="M32 0 C63.76 0.36, 92.81 0.47, 161.99 0 M32 0 C67.49 -1.53, 102.25 -0.26, 161.99 0 M161.99 0 C183.29 1.4, 192.54 12.28, 193.99 32 M161.99 0 C184.59 -1.79, 192.9 8.5, 193.99 32 M193.99 32 C191.4 57.98, 193.95 80.69, 193.99 128.3 M193.99 32 C194.96 55.09, 193.58 76.7, 193.99 128.3 M193.99 128.3 C195.08 149.95, 182.91 162, 161.99 160.3 M193.99 128.3 C193.26 149.29, 182.65 159.35, 161.99 160.3 M161.99 160.3 C118.18 161.45, 76.01 161.61, 32 160.3 M161.99 160.3 C122.15 161.7, 79.99 160.68, 32 160.3 M32 160.3 C11.28 161.91, 1.52 148, 0 128.3 M32 160.3 C11.09 158.49, 0.66 147.84, 0 128.3 M0 128.3 C1.35 90.45, -2.46 53.69, 0 32 M0 128.3 C0.13 99.94, 0.64 71.82, 0 32 M0 32 C-1.5 10.96, 11.92 -1.66, 32 0 M0 32 C-0.46 12.38, 8.63 -0.83, 32 0" stroke="#1971c2" stroke-width="2" fill="none"></path></g><g transform="translate(1074.7391371794533 754.0859138746509) rotate(0 26.329971313476562 12.5)"><text x="26.329971313476562" y="0" font-family="Virgil, Segoe UI Emoji" font-size="20px" fill="#1971c2" text-anchor="middle" style="white-space: pre;" direction="ltr" dominant-baseline="text-before-edge">Timer</text></g><g stroke-linecap="round" transform="translate(1002.5238972488432 877.8368141330789) rotate(0 96.9961272941573 80.14817309311331)"><path d="M32 0 C77.86 5.47, 123.83 2.07, 161.99 0 C183.74 -1.92, 196.54 12.23, 193.99 32 C195.07 63.32, 193.79 90.47, 193.99 128.3 C195.52 149.36, 185.69 160.53, 161.99 160.3 C134.44 155.3, 107.49 161.67, 32 160.3 C8.31 156.7, -1.3 148.51, 0 128.3 C-2.01 102.72, -1.05 78.6, 0 32 C-3.45 9.88, 12.24 -2.69, 32 0" stroke="none" stroke-width="0" fill="#ffec99"></path><path d="M32 0 C72.28 2.59, 116.77 -0.7, 161.99 0 M32 0 C76.73 0.2, 122.76 -1.26, 161.99 0 M161.99 0 C184.69 -0.72, 194.46 8.74, 193.99 32 M161.99 0 C182.55 0.94, 193.75 11.2, 193.99 32 M193.99 32 C195.61 58.49, 193.05 81.31, 193.99 128.3 M193.99 32 C193.57 68.67, 193.47 103.35, 193.99 128.3 M193.99 128.3 C192.75 150.76, 184.24 162.13, 161.99 160.3 M193.99 128.3 C192.49 151.33, 184.01 159.36, 161.99 160.3 M161.99 160.3 C111.81 158.42, 58.61 157.81, 32 160.3 M161.99 160.3 C127.95 159.59, 94.1 159.77, 32 160.3 M32 160.3 C10.99 160.57, -1.65 149.74, 0 128.3 M32 160.3 C9.03 158.11, 1.46 150.08, 0 128.3 M0 128.3 C-0.99 95.49, 1.09 61.15, 0 32 M0 128.3 C-0.92 109.5, 0.38 89.06, 0 32 M0 32 C1.95 9.4, 11.07 1.5, 32 0 M0 32 C-1.47 10.06, 8.44 -1.46, 32 0" stroke="#1971c2" stroke-width="2" fill="none"></path></g><g transform="translate(1073.190053229524 945.4849872261922) rotate(0 26.329971313476562 12.5)"><text x="26.329971313476562" y="0" font-family="Virgil, Segoe UI Emoji" font-size="20px" fill="#1971c2" text-anchor="middle" style="white-space: pre;" direction="ltr" dominant-baseline="text-before-edge">Timer</text></g><g transform="translate(1614.938223823362 294.7675726437048) rotate(0 81.72991943359375 25)"><text x="0" y="0" font-family="Virgil, Segoe UI Emoji" font-size="20px" fill="#1e1e1e" text-anchor="start" style="white-space: pre;" direction="ltr" dominant-baseline="text-before-edge">1) This is where </text><text x="0" y="25" font-family="Virgil, Segoe UI Emoji" font-size="20px" fill="#1e1e1e" text-anchor="start" style="white-space: pre;" direction="ltr" dominant-baseline="text-before-edge">the request hits</text></g><g transform="translate(1251.8366716633705 224.03819478283071) rotate(0 144.64987182617188 25)"><text x="0" y="0" font-family="Virgil, Segoe UI Emoji" font-size="20px" fill="#1e1e1e" text-anchor="start" style="white-space: pre;" direction="ltr" dominant-baseline="text-before-edge">2) The load balancer</text><text x="0" y="25" font-family="Virgil, Segoe UI Emoji" font-size="20px" fill="#1e1e1e" text-anchor="start" style="white-space: pre;" direction="ltr" dominant-baseline="text-before-edge">assignes this request a heap</text></g><g transform="translate(924.5988216801863 364.50126707839854) rotate(0 136.31988525390625 37.5)"><text x="0" y="0" font-family="Virgil, Segoe UI Emoji" font-size="20px" fill="#1e1e1e" text-anchor="start" style="white-space: pre;" direction="ltr" dominant-baseline="text-before-edge">3) Once the timer expires</text><text x="0" y="25" font-family="Virgil, Segoe UI Emoji" font-size="20px" fill="#1e1e1e" text-anchor="start" style="white-space: pre;" direction="ltr" dominant-baseline="text-before-edge">it is send to a http worker</text><text x="0" y="50" font-family="Virgil, Segoe UI Emoji" font-size="20px" fill="#1e1e1e" text-anchor="start" style="white-space: pre;" direction="ltr" dominant-baseline="text-before-edge"></text></g><g stroke-linecap="round" transform="translate(647.6553060198535 729.8491056847804) rotate(0 96.9961272941573 25.810271307152703)"><path d="M12.91 0 C63.99 4.64, 112.67 0.77, 181.09 0 C188.49 -3.3, 191.49 3.01, 193.99 12.91 C192.17 17.86, 190.58 23.89, 193.99 38.72 C195.82 49.48, 187.6 50.2, 181.09 51.62 C129.47 51.84, 77.02 51.71, 12.91 51.62 C3.94 54.78, -1.69 45.53, 0 38.72 C2.16 32.06, -2.48 23.61, 0 12.91 C1.44 6.99, 3.96 -2.23, 12.91 0" stroke="none" stroke-width="0" fill="#a5d8ff"></path><path d="M12.91 0 C57.75 -0.68, 103.14 0.42, 181.09 0 M12.91 0 C53.57 0.29, 92.52 -0.4, 181.09 0 M181.09 0 C189.98 -0.45, 192.48 5.89, 193.99 12.91 M181.09 0 C191.5 -1.24, 191.71 3.49, 193.99 12.91 M193.99 12.91 C194.4 18.84, 194.64 28.07, 193.99 38.72 M193.99 12.91 C194.14 18.41, 195.1 24.9, 193.99 38.72 M193.99 38.72 C193.55 46.91, 187.71 52.03, 181.09 51.62 M193.99 38.72 C195.07 49.16, 190.61 53.61, 181.09 51.62 M181.09 51.62 C120.31 49.83, 63.81 48.98, 12.91 51.62 M181.09 51.62 C142.45 50.37, 102.58 49.74, 12.91 51.62 M12.91 51.62 C3.31 52.96, -1.06 47.01, 0 38.72 M12.91 51.62 C5.16 50.02, -2.25 47.69, 0 38.72 M0 38.72 C-0.64 31.26, -0.57 26.82, 0 12.91 M0 38.72 C1.04 30.82, -0.27 25.16, 0 12.91 M0 12.91 C-1.18 6.16, 3.87 -1.3, 12.91 0 M0 12.91 C2.07 5.47, 5.94 -0.49, 12.91 0" stroke="#1971c2" stroke-width="2" fill="none"></path></g><g transform="translate(718.3214620005342 743.1593769919331) rotate(0 26.329971313476562 12.5)"><text x="26.329971313476562" y="0" font-family="Virgil, Segoe UI Emoji" font-size="20px" fill="#1971c2" text-anchor="middle" style="white-space: pre;" direction="ltr" dominant-baseline="text-before-edge">Timer</text></g><g transform="translate(331.4904136624027 435.28173706701625) rotate(0 206.23983764648438 25)"><text x="0" y="0" font-family="Virgil, Segoe UI Emoji" font-size="20px" fill="#1e1e1e" text-anchor="start" style="white-space: pre;" direction="ltr" dominant-baseline="text-before-edge">4) the task is assigned to a http worker</text><text x="0" y="25" font-family="Virgil, Segoe UI Emoji" font-size="20px" fill="#1e1e1e" text-anchor="start" style="white-space: pre;" direction="ltr" dominant-baseline="text-before-edge">who calls the call back url</text></g></svg>