<svg version="1.1" xmlns="http://www.w3.org/2000/svg" viewBox="0 0 1472.068321627309 1200.2249714912675" width="1472.068321627309" height="1200.2249714912675" filter="invert(93%) hue-rotate(180deg)">
  <!-- svg-source:excalidraw -->
  
  <defs>
    <style class="style-fonts">
      @font-face {
        font-family: "Virgil";
        src: url("https://file%2B.vscode-resource.vscode-cdn.net/Users/jay/.antigravity-ide/extensions/lrstanley.excalidraw-editor-3.7.4-universal/public//dist/excalidraw-assets/Virgil.woff2");
      }
      @font-face {
        font-family: "Cascadia";
        src: url("https://file%2B.vscode-resource.vscode-cdn.net/Users/jay/.antigravity-ide/extensions/lrstanley.excalidraw-editor-3.7.4-universal/public//dist/excalidraw-assets/Cascadia.woff2");
      }
      @font-face {
        font-family: "Assistant";
        src: url("https://file%2B.vscode-resource.vscode-cdn.net/Users/jay/.antigravity-ide/extensions/lrstanley.excalidraw-editor-3.7.4-universal/public//dist/excalidraw-assets/Assistant-Regular.woff2");
      }
    </style>
    
  </defs>
  <g transform="translate(34.336748457200656 10) rotate(0 326.953125 21.600000000000023)"><text x="0" y="0" font-family="Cascadia, Segoe UI Emoji" font-size="36px" fill="#1e1e1e" text-anchor="start" style="white-space: pre;" direction="ltr" dominant-baseline="text-before-edge">Why do we have multiple heaps? </text></g><g stroke-linecap="round" transform="translate(10 101.41194153599008) rotate(0 109.89609248320596 309.4867608969265)"><path d="M32 0 C84.13 -3.38, 137.9 1.68, 187.79 0 C207.74 1.88, 219.91 8.09, 219.79 32 C221.01 165.89, 219.73 297.59, 219.79 586.97 C219.02 611.11, 211.49 616.48, 187.79 618.97 C143.06 619.18, 100.51 620.48, 32 618.97 C10.07 619.46, -2.81 605.4, 0 586.97 C4.26 389.98, 3.48 194.57, 0 32 C-2.86 8.55, 11.31 2.17, 32 0" stroke="none" stroke-width="0" fill="#ffec99"></path><path d="M32 0 C86.68 0.43, 142.72 -0.47, 187.79 0 M32 0 C72.9 1.37, 115.05 -0.25, 187.79 0 M187.79 0 C209.76 0.99, 220.52 10.83, 219.79 32 M187.79 0 C208.99 1.98, 220.41 8.91, 219.79 32 M219.79 32 C217.38 160.57, 217.16 289.99, 219.79 586.97 M219.79 32 C218.01 201.17, 218.26 370.53, 219.79 586.97 M219.79 586.97 C220.58 607.17, 210.91 618.24, 187.79 618.97 M219.79 586.97 C220.63 609.25, 206.91 620.3, 187.79 618.97 M187.79 618.97 C147.55 618.8, 108.08 620.56, 32 618.97 M187.79 618.97 C137.7 619.22, 84.85 619.02, 32 618.97 M32 618.97 C11.08 619.16, 1.97 609.43, 0 586.97 M32 618.97 C10.9 617.94, -1.5 609.91, 0 586.97 M0 586.97 C0.88 384.11, 0.73 179.84, 0 32 M0 586.97 C-0.44 382.97, -0.82 180.03, 0 32 M0 32 C0.52 8.85, 9.07 -0.81, 32 0 M0 32 C-0.11 10.46, 11.67 2.2, 32 0" stroke="#1971c2" stroke-width="2" fill="none"></path></g><g stroke-linecap="round" transform="translate(24.51040665930759 158.9807856949924) rotate(0 96.99612729415742 80.14817309311331)"><path d="M32 0 C77.8 4.42, 122.91 3.08, 161.99 0 C183.44 -2.58, 191.8 11.77, 193.99 32 C190.77 70.46, 193.21 110.55, 193.99 128.3 C196.35 147.14, 182.85 156.92, 161.99 160.3 C122.96 161.19, 79.22 160.62, 32 160.3 C7.85 157.39, 1.96 146.4, 0 128.3 C-1.07 102.56, -3.67 69.36, 0 32 C0.65 12.83, 10.47 -3.3, 32 0" stroke="none" stroke-width="0" fill="#ffec99"></path><path d="M32 0 C62.22 -1.17, 89.42 1.95, 161.99 0 M32 0 C66.61 -1.86, 100.88 -0.55, 161.99 0 M161.99 0 C184.05 0.17, 193.88 12.39, 193.99 32 M161.99 0 C183.94 -1.75, 192.43 8.52, 193.99 32 M193.99 32 C192.19 71.23, 193.68 106.25, 193.99 128.3 M193.99 32 C193.5 68.41, 193.83 104.62, 193.99 128.3 M193.99 128.3 C195.77 148.89, 184.06 161.12, 161.99 160.3 M193.99 128.3 C191.77 150.95, 182.37 159.58, 161.99 160.3 M161.99 160.3 C120.92 161.21, 78.88 160.02, 32 160.3 M161.99 160.3 C126.89 161.99, 93.86 161.46, 32 160.3 M32 160.3 C12.64 161.42, 0.2 148.73, 0 128.3 M32 160.3 C9.16 161.9, 1.52 148.97, 0 128.3 M0 128.3 C-0.07 105.21, 1.05 86.56, 0 32 M0 128.3 C-0.92 106.91, -0.65 82.75, 0 32 M0 32 C-1.59 9.85, 10.57 -0.18, 32 0 M0 32 C1 12.87, 11.61 -2.24, 32 0" stroke="#1971c2" stroke-width="2" fill="none"></path></g><g transform="translate(72.75657210043755 214.1289587881056) rotate(0 48.74996185302746 25)"><text x="48.749961853027344" y="0" font-family="Virgil, Segoe UI Emoji" font-size="20px" fill="#1971c2" text-anchor="middle" style="white-space: pre;" direction="ltr" dominant-baseline="text-before-edge">Timer</text><text x="48.749961853027344" y="25" font-family="Virgil, Segoe UI Emoji" font-size="20px" fill="#1971c2" text-anchor="middle" style="white-space: pre;" direction="ltr" dominant-baseline="text-before-edge">fireAt: 101</text></g><g stroke-linecap="round" transform="translate(258.68922424186553 97.76390272858066) rotate(0 109.89609248320585 309.4867608969266)"><path d="M32 0 C80.56 -4.36, 128.95 -4.98, 187.79 0 C207.51 2.5, 223.32 8.96, 219.79 32 C221.31 223.84, 223.02 413.34, 219.79 586.97 C219.95 611.46, 206.67 620.05, 187.79 618.97 C154.97 614.56, 120.4 617.02, 32 618.97 C13.87 618.27, 0.94 611.1, 0 586.97 C-3.54 404.47, -5.18 218.92, 0 32 C-0.8 9.76, 7.69 -1.47, 32 0" stroke="none" stroke-width="0" fill="#ffec99"></path><path d="M32 0 C83.91 -1.06, 138.68 0.94, 187.79 0 M32 0 C70.49 -1.81, 109.18 -0.88, 187.79 0 M187.79 0 C210.17 -1.11, 218.23 11.32, 219.79 32 M187.79 0 C207.08 1.6, 220.1 9.36, 219.79 32 M219.79 32 C219.84 178.34, 220.54 323.21, 219.79 586.97 M219.79 32 C219.01 230.66, 219.41 428.23, 219.79 586.97 M219.79 586.97 C219.17 609.41, 209.86 617.82, 187.79 618.97 M219.79 586.97 C220 607.91, 210.69 619.34, 187.79 618.97 M187.79 618.97 C157.35 620.61, 124.26 620.69, 32 618.97 M187.79 618.97 C145.76 619.2, 103.11 618.74, 32 618.97 M32 618.97 C11.31 619.07, -1.12 607.54, 0 586.97 M32 618.97 C8.37 618.25, -1.67 609.7, 0 586.97 M0 586.97 C-0.74 458.28, -1.02 331.36, 0 32 M0 586.97 C-1.27 371.91, -2.03 157.89, 0 32 M0 32 C-1.41 12.13, 9.17 -0.14, 32 0 M0 32 C1.8 11.44, 8.73 1.59, 32 0" stroke="#1971c2" stroke-width="2" fill="none"></path></g><g stroke-linecap="round" transform="translate(273.1996309011731 155.33274688758252) rotate(0 96.9961272941573 80.14817309311331)"><path d="M32 0 C83.01 -1.19, 133.62 3.57, 161.99 0 C186.86 -1.71, 195.58 13.27, 193.99 32 C193.2 65.13, 192.5 105.08, 193.99 128.3 C191.54 150.7, 179.97 158.14, 161.99 160.3 C126.35 157.73, 99.88 157.62, 32 160.3 C11.61 163.08, 1.13 153.19, 0 128.3 C-3.58 101.01, -1.29 74.1, 0 32 C-2.98 9.2, 11.23 -1.5, 32 0" stroke="none" stroke-width="0" fill="#ffec99"></path><path d="M32 0 C72.89 1.72, 113.04 2.49, 161.99 0 M32 0 C78.39 1.18, 126.45 0.56, 161.99 0 M161.99 0 C181.76 0.65, 192.21 12.06, 193.99 32 M161.99 0 C183.63 -1.31, 193.13 11.16, 193.99 32 M193.99 32 C194.18 54.53, 194.63 77.75, 193.99 128.3 M193.99 32 C193.56 64.5, 192.98 99.51, 193.99 128.3 M193.99 128.3 C194.73 148.47, 183.51 159.95, 161.99 160.3 M193.99 128.3 C195.55 149.99, 181.14 162.44, 161.99 160.3 M161.99 160.3 C119.85 162.4, 76.5 161.69, 32 160.3 M161.99 160.3 C125.12 161.2, 90.39 161.11, 32 160.3 M32 160.3 C9.55 159.53, -1.99 149, 0 128.3 M32 160.3 C9 161.69, -1.6 150.02, 0 128.3 M0 128.3 C-1.17 100.41, 2.18 72.31, 0 32 M0 128.3 C-1.87 105.17, -1.6 81.16, 0 32 M0 32 C-1.5 10.53, 12.23 0.67, 32 0 M0 32 C-1.93 12.26, 10.97 1.14, 32 0" stroke="#1971c2" stroke-width="2" fill="none"></path></g><g transform="translate(317.345797868182 210.48091998069572) rotate(0 52.84996032714844 25)"><text x="52.84996032714844" y="0" font-family="Virgil, Segoe UI Emoji" font-size="20px" fill="#1971c2" text-anchor="middle" style="white-space: pre;" direction="ltr" dominant-baseline="text-before-edge">Timer</text><text x="52.84996032714844" y="25" font-family="Virgil, Segoe UI Emoji" font-size="20px" fill="#1971c2" text-anchor="middle" style="white-space: pre;" direction="ltr" dominant-baseline="text-before-edge">fireAt: 103</text></g><g stroke-linecap="round" transform="translate(498.07824454778734 98.10759664805119) rotate(0 109.89609248320585 309.4867608969265)"><path d="M32 0 C96.14 -3.97, 154.36 -0.77, 187.79 0 C210.9 1.95, 223.35 7.14, 219.79 32 C222.75 240.32, 223.82 446.43, 219.79 586.97 C223.33 610.04, 205.99 620.82, 187.79 618.97 C153.36 618.86, 113.46 616.77, 32 618.97 C8.79 620.96, -1.89 607.63, 0 586.97 C4.39 470.54, 3.28 355.73, 0 32 C2.57 13.14, 12.03 1.77, 32 0" stroke="none" stroke-width="0" fill="#ffec99"></path><path d="M32 0 C62.18 1.34, 95.99 2.55, 187.79 0 M32 0 C67.62 -1.05, 102.39 -0.7, 187.79 0 M187.79 0 C210.39 0.33, 220.37 9.34, 219.79 32 M187.79 0 C209.62 1.99, 221.85 12.92, 219.79 32 M219.79 32 C217.25 248.14, 217.44 464.49, 219.79 586.97 M219.79 32 C220.66 205.27, 220.22 379.46, 219.79 586.97 M219.79 586.97 C219.58 608.67, 210.34 617.88, 187.79 618.97 M219.79 586.97 C217.98 606.75, 208.28 621.25, 187.79 618.97 M187.79 618.97 C148.98 618.48, 109.54 619.38, 32 618.97 M187.79 618.97 C148.63 618.77, 109.7 617.45, 32 618.97 M32 618.97 C9.33 619.43, 1.81 607.56, 0 586.97 M32 618.97 C12.33 620.36, 1.63 607.75, 0 586.97 M0 586.97 C0.99 405.23, 1.33 224.98, 0 32 M0 586.97 C1.7 425.41, 1.88 263.83, 0 32 M0 32 C-0.3 9.26, 8.84 -1.99, 32 0 M0 32 C-0.4 12.58, 11.99 -1.84, 32 0" stroke="#1971c2" stroke-width="2" fill="none"></path></g><g stroke-linecap="round" transform="translate(512.588651207094 155.67644080705304) rotate(0 96.9961272941573 80.14817309311331)"><path d="M32 0 C81.4 2.76, 137.08 2.76, 161.99 0 C186.88 -3.52, 196.63 13.84, 193.99 32 C194.6 64.24, 196.85 97.07, 193.99 128.3 C190.85 151.47, 180.73 157.85, 161.99 160.3 C121.98 158.85, 86.79 162.54, 32 160.3 C8.77 159.62, -3.33 146.59, 0 128.3 C-1.46 94.19, 1.34 67.14, 0 32 C1.36 12.44, 13.54 -0.46, 32 0" stroke="none" stroke-width="0" fill="#ffec99"></path><path d="M32 0 C65.6 1.44, 97.07 -1.2, 161.99 0 M32 0 C79.14 0.36, 127.29 0.23, 161.99 0 M161.99 0 C183.9 -1.32, 194.42 12.39, 193.99 32 M161.99 0 C185.38 2.25, 196.05 8.46, 193.99 32 M193.99 32 C192.93 60.75, 193.74 89.09, 193.99 128.3 M193.99 32 C194.78 61.24, 194.81 89.01, 193.99 128.3 M193.99 128.3 C195.21 148.54, 181.75 158.94, 161.99 160.3 M193.99 128.3 C193.15 151.9, 182.33 160.48, 161.99 160.3 M161.99 160.3 C130.37 161.48, 94.2 161.14, 32 160.3 M161.99 160.3 C133.22 161.2, 102.86 161.79, 32 160.3 M32 160.3 C12.48 159.55, 1.44 150.84, 0 128.3 M32 160.3 C12.29 159.74, 0.61 148.31, 0 128.3 M0 128.3 C0.47 107.29, 0.17 81.63, 0 32 M0 128.3 C0.42 100.64, 0.56 71.46, 0 32 M0 32 C-1.83 8.68, 10.32 1.66, 32 0 M0 32 C1.32 8.82, 12.97 -0.93, 32 0" stroke="#1971c2" stroke-width="2" fill="none"></path></g><g transform="translate(557.1448218362123 210.82461390016647) rotate(0 52.43995666503906 25)"><text x="52.43995666503906" y="0" font-family="Virgil, Segoe UI Emoji" font-size="20px" fill="#1971c2" text-anchor="middle" style="white-space: pre;" direction="ltr" dominant-baseline="text-before-edge">Timer</text><text x="52.43995666503906" y="25" font-family="Virgil, Segoe UI Emoji" font-size="20px" fill="#1971c2" text-anchor="middle" style="white-space: pre;" direction="ltr" dominant-baseline="text-before-edge">fireAt: 104</text></g><g stroke-linecap="round" transform="translate(120.08838476681535 812.9487621955695) rotate(0 225.97627813546637 27.5)"><path d="M13.75 0 C153.68 -4.09, 292.04 -3.73, 438.2 0 C450.41 2.99, 450.67 6.03, 451.95 13.75 C452.85 21.82, 452.52 29.77, 451.95 41.25 C451.05 50.94, 450.06 54.61, 438.2 55 C287 55.53, 135.91 56.16, 13.75 55 C5.35 53.38, -1.35 52.78, 0 41.25 C-0.12 31.09, 1.14 17.37, 0 13.75 C0.06 5.93, 1.88 -2.93, 13.75 0" stroke="none" stroke-width="0" fill="#a5d8ff"></path><path d="M13.75 0 C107.93 -1.78, 205.04 -0.71, 438.2 0 M13.75 0 C183.75 0.4, 353.4 0.39, 438.2 0 M438.2 0 C447.94 0.93, 450.28 2.81, 451.95 13.75 M438.2 0 C447.83 2.08, 450.43 5.13, 451.95 13.75 M451.95 13.75 C451.51 21.22, 453.12 25.55, 451.95 41.25 M451.95 13.75 C452.28 23.67, 451.98 31.95, 451.95 41.25 M451.95 41.25 C452.52 48.85, 447.64 53.22, 438.2 55 M451.95 41.25 C452.44 48.64, 445.59 55.69, 438.2 55 M438.2 55 C319.69 56.4, 203.64 54.81, 13.75 55 M438.2 55 C272.21 56.69, 107.16 56.51, 13.75 55 M13.75 55 C2.64 54, -0.86 51.93, 0 41.25 M13.75 55 C2.46 54.29, -1.21 50.2, 0 41.25 M0 41.25 C0.46 34.68, 0.26 26.8, 0 13.75 M0 41.25 C0.09 34.63, 0.5 30.38, 0 13.75 M0 13.75 C1.32 2.92, 2.74 1.57, 13.75 0 M0 13.75 C1.6 4.75, 2.45 0.18, 13.75 0" stroke="#1e1e1e" stroke-width="2" fill="none"></path></g><g transform="translate(227.19270703069947 817.9487621955695) rotate(0 118.87195587158203 22.5)"><text x="118.87195587158203" y="0" font-family="Virgil, Segoe UI Emoji" font-size="36px" fill="#1e1e1e" text-anchor="middle" style="white-space: pre;" direction="ltr" dominant-baseline="text-before-edge">load balancer</text></g><g stroke-linecap="round"><g transform="translate(328.3053343760432 996.3681028063102) rotate(0 9.97665886193704 -59.04412105401764)"><path d="M0.37 -0.14 C-0.04 -7.12, -5.03 -22.9, -1.4 -42.69 C2.24 -62.49, 18.21 -106.54, 22.17 -118.92 M-0.9 -1.26 C-1.5 -8.52, -5.71 -25.05, -1.98 -44.52 C1.74 -63.98, 17.34 -105.63, 21.47 -118.04" stroke="#1e1e1e" stroke-width="2" fill="none"></path></g><g transform="translate(328.3053343760432 996.3681028063102) rotate(0 9.97665886193704 -59.04412105401764)"><path d="M21.85 -88.04 C21.68 -98.54, 22.72 -111.11, 21.47 -118.04 M21.85 -88.04 C21.02 -95.63, 21.93 -100.96, 21.47 -118.04" stroke="#1e1e1e" stroke-width="2" fill="none"></path></g><g transform="translate(328.3053343760432 996.3681028063102) rotate(0 9.97665886193704 -59.04412105401764)"><path d="M2.48 -94.82 C9.78 -102.74, 18.34 -112.68, 21.47 -118.04 M2.48 -94.82 C6.14 -101.02, 11.52 -104.79, 21.47 -118.04" stroke="#1e1e1e" stroke-width="2" fill="none"></path></g></g><mask></mask><g stroke-linecap="round" transform="translate(259.4527910267127 1004.2876087191519) rotate(0 97.03792978534216 27.5)"><path d="M13.75 0 C77.93 -4.83, 146.3 -1.43, 180.33 0 C190.95 0.3, 197.67 6.72, 194.08 13.75 C194.58 23.78, 196.07 29.59, 194.08 41.25 C196.49 48, 191.23 57.88, 180.33 55 C131.28 53.37, 91.5 53.94, 13.75 55 C3.72 55.36, -2.76 47.45, 0 41.25 C1.18 37.29, -1.9 30, 0 13.75 C0.79 5.65, 6.93 2.68, 13.75 0" stroke="none" stroke-width="0" fill="#b2f2bb"></path><path d="M13.75 0 C68.35 -1.21, 127.07 0.06, 180.33 0 M13.75 0 C74.19 0.66, 135.37 2.13, 180.33 0 M180.33 0 C189.23 -1, 192.37 5.22, 194.08 13.75 M180.33 0 C191.53 -1.54, 194.73 6.88, 194.08 13.75 M194.08 13.75 C194.16 23.24, 194.33 27.23, 194.08 41.25 M194.08 13.75 C193.63 23.04, 194.09 30.94, 194.08 41.25 M194.08 41.25 C195.25 51.47, 189.38 55.7, 180.33 55 M194.08 41.25 C192.05 48.56, 187.47 55.22, 180.33 55 M180.33 55 C133.94 54.2, 86.36 53.2, 13.75 55 M180.33 55 C132.41 56.61, 85.33 55.63, 13.75 55 M13.75 55 C4.86 53.63, -1.76 50.15, 0 41.25 M13.75 55 C4.88 57.01, 1.3 51.32, 0 41.25 M0 41.25 C0.84 31.21, -0.37 21.63, 0 13.75 M0 41.25 C-0.06 35.32, -0.87 28.12, 0 13.75 M0 13.75 C-0.97 5.77, 4.66 0.76, 13.75 0 M0 13.75 C-0.36 3.37, 2.92 -1.38, 13.75 0" stroke="#1e1e1e" stroke-width="2" fill="none"></path></g><g transform="translate(307.74075895902774 1019.2876087191519) rotate(0 48.749961853027344 12.5)"><text x="48.749961853027344" y="0" font-family="Virgil, Segoe UI Emoji" font-size="20px" fill="#1e1e1e" text-anchor="middle" style="white-space: pre;" direction="ltr" dominant-baseline="text-before-edge">fireAt: 101</text></g><g stroke-linecap="round" transform="translate(259.6694244138737 1069.211708280054) rotate(0 97.03792978534216 27.5)"><path d="M13.75 0 C71.36 1.81, 132.11 -4.66, 180.33 0 C186.06 -3.37, 192.96 3.83, 194.08 13.75 C196.36 22.86, 193.66 30.47, 194.08 41.25 C194.42 51.98, 187.7 54.3, 180.33 55 C123.48 55.91, 63.27 54.62, 13.75 55 C6.93 55.8, 3.33 52.12, 0 41.25 C1.57 27.23, -1.01 16.97, 0 13.75 C0.32 3.31, 7.35 -1.3, 13.75 0" stroke="none" stroke-width="0" fill="#b2f2bb"></path><path d="M13.75 0 C79.03 -0.98, 145.25 -1.5, 180.33 0 M13.75 0 C73.27 -0.77, 134.57 -0.69, 180.33 0 M180.33 0 C189.78 -1.78, 192.29 5.03, 194.08 13.75 M180.33 0 C191.1 0.95, 193.42 5.53, 194.08 13.75 M194.08 13.75 C194.33 23.83, 194.36 31.48, 194.08 41.25 M194.08 13.75 C194.22 24.05, 193.5 32.43, 194.08 41.25 M194.08 41.25 C194.33 50.28, 188.21 56.41, 180.33 55 M194.08 41.25 C191.94 52.54, 188.81 56.76, 180.33 55 M180.33 55 C126.88 56.32, 75.22 55.98, 13.75 55 M180.33 55 C124.7 55.35, 67.86 54.76, 13.75 55 M13.75 55 C3.91 56.58, 1.29 48.98, 0 41.25 M13.75 55 C5.18 55.72, -2.25 50.58, 0 41.25 M0 41.25 C1.74 35.66, -0.21 29.36, 0 13.75 M0 41.25 C0.01 34.7, 0.11 26.35, 0 13.75 M0 13.75 C-0.69 3.29, 3.01 1.21, 13.75 0 M0 13.75 C1.52 5.53, 2.39 -1.06, 13.75 0" stroke="#1e1e1e" stroke-width="2" fill="none"></path></g><g transform="translate(303.85739387206763 1084.211708280054) rotate(0 52.84996032714844 12.5)"><text x="52.84996032714844" y="0" font-family="Virgil, Segoe UI Emoji" font-size="20px" fill="#1e1e1e" text-anchor="middle" style="white-space: pre;" direction="ltr" dominant-baseline="text-before-edge">fireAt: 103</text></g><g stroke-linecap="round" transform="translate(260.0289436521423 1135.2249714912675) rotate(0 97.03792978534216 27.5)"><path d="M13.75 0 C55.41 5.46, 94.68 4.56, 180.33 0 C187.37 -3.34, 196.26 2.4, 194.08 13.75 C196.89 15.98, 191.18 26.5, 194.08 41.25 C195.17 52.38, 189.73 56.7, 180.33 55 C129.94 57.57, 74.26 55.76, 13.75 55 C4.58 56.6, -1.29 51.49, 0 41.25 C0.89 30.72, -2.02 27.56, 0 13.75 C1.09 1.13, 6.06 -1.46, 13.75 0" stroke="none" stroke-width="0" fill="#b2f2bb"></path><path d="M13.75 0 C65.13 -2.53, 117.76 0.09, 180.33 0 M13.75 0 C65.08 0.02, 115.76 -0.55, 180.33 0 M180.33 0 C189.84 1.15, 194.13 4.61, 194.08 13.75 M180.33 0 C189.02 -0.67, 195.22 4.8, 194.08 13.75 M194.08 13.75 C193.65 20.81, 195.73 29.34, 194.08 41.25 M194.08 13.75 C194.56 22.3, 194.11 30.58, 194.08 41.25 M194.08 41.25 C192.12 51.51, 190.58 54.31, 180.33 55 M194.08 41.25 C192.03 50.42, 191.09 53.79, 180.33 55 M180.33 55 C136 53.41, 96.25 55.19, 13.75 55 M180.33 55 C142.95 56.54, 107.79 56.07, 13.75 55 M13.75 55 C3.78 56.44, -0.47 48.62, 0 41.25 M13.75 55 C3.06 54.86, -0.45 48.16, 0 41.25 M0 41.25 C-1.26 29.78, 0.31 20.08, 0 13.75 M0 41.25 C-0.23 33.49, -0.97 23.07, 0 13.75 M0 13.75 C-1.58 4.47, 3.55 -0.27, 13.75 0 M0 13.75 C2.19 5.75, 2.67 0, 13.75 0" stroke="#1e1e1e" stroke-width="2" fill="none"></path></g><g transform="translate(304.62691677244516 1150.2249714912675) rotate(0 52.43995666503906 12.5)"><text x="52.43995666503906" y="0" font-family="Virgil, Segoe UI Emoji" font-size="20px" fill="#1e1e1e" text-anchor="middle" style="white-space: pre;" direction="ltr" dominant-baseline="text-before-edge">fireAt: 104</text></g><g stroke-linecap="round" transform="translate(21.67261740359936 337.5930168337652) rotate(0 96.99612729415742 80.14817309311331)"><path d="M32 0 C83.51 4.01, 127.66 -0.26, 161.99 0 C184.82 1.1, 192.76 13.26, 193.99 32 C191.4 61.59, 196.32 91.24, 193.99 128.3 C195.56 150.43, 184.05 157.88, 161.99 160.3 C126.09 158.01, 89.04 159.82, 32 160.3 C12.41 157.76, -3.46 146.39, 0 128.3 C-0.49 109, -3.29 82.9, 0 32 C2.67 8.18, 14.18 -3.28, 32 0" stroke="none" stroke-width="0" fill="#ffec99"></path><path d="M32 0 C61.87 0.44, 87.26 -2.48, 161.99 0 M32 0 C63.31 1.54, 93.88 1.13, 161.99 0 M161.99 0 C183.27 -0.99, 194.52 9.97, 193.99 32 M161.99 0 C181.57 -0.62, 194.02 10.36, 193.99 32 M193.99 32 C195.17 52.83, 194.4 73.76, 193.99 128.3 M193.99 32 C194.38 62.68, 195.46 93.66, 193.99 128.3 M193.99 128.3 C195.97 150.2, 181.99 159.44, 161.99 160.3 M193.99 128.3 C194.24 149.06, 182.6 158.22, 161.99 160.3 M161.99 160.3 C127.9 159.57, 93.53 161.32, 32 160.3 M161.99 160.3 C120.74 160.35, 78.88 159.65, 32 160.3 M32 160.3 C9.36 159.75, 1.35 148.3, 0 128.3 M32 160.3 C12.61 161.68, 0.14 150.47, 0 128.3 M0 128.3 C-2.1 104.79, 0.36 80.3, 0 32 M0 128.3 C0.73 96.22, 0.75 66.78, 0 32 M0 32 C1.85 10.57, 11.61 1.84, 32 0 M0 32 C0.3 12.76, 11.8 -0.48, 32 0" stroke="#1971c2" stroke-width="2" fill="none"></path></g><g transform="translate(65.50878681201448 392.7411899268784) rotate(0 53.1599578857423 25)"><text x="53.15995788574219" y="0" font-family="Virgil, Segoe UI Emoji" font-size="20px" fill="#1971c2" text-anchor="middle" style="white-space: pre;" direction="ltr" dominant-baseline="text-before-edge">Timer</text><text x="53.15995788574219" y="25" font-family="Virgil, Segoe UI Emoji" font-size="20px" fill="#1971c2" text-anchor="middle" style="white-space: pre;" direction="ltr" dominant-baseline="text-before-edge">fireAt: 120</text></g><g transform="translate(750.6691356014992 312.36667446100455) rotate(0 324.1797180175781 75)"><text x="0" y="0" font-family="Virgil, Segoe UI Emoji" font-size="20px" fill="#1971c2" text-anchor="start" style="white-space: pre;" direction="ltr" dominant-baseline="text-before-edge">Multiple heaps allow us to </text><text x="0" y="25" font-family="Virgil, Segoe UI Emoji" font-size="20px" fill="#1971c2" text-anchor="start" style="white-space: pre;" direction="ltr" dominant-baseline="text-before-edge">spread the timers that are close by into different heaps </text><text x="0" y="50" font-family="Virgil, Segoe UI Emoji" font-size="20px" fill="#1971c2" text-anchor="start" style="white-space: pre;" direction="ltr" dominant-baseline="text-before-edge"></text><text x="0" y="75" font-family="Virgil, Segoe UI Emoji" font-size="20px" fill="#1971c2" text-anchor="start" style="white-space: pre;" direction="ltr" dominant-baseline="text-before-edge">in this way they will be processed together (most likey) when </text><text x="0" y="100" font-family="Virgil, Segoe UI Emoji" font-size="20px" fill="#1971c2" text-anchor="start" style="white-space: pre;" direction="ltr" dominant-baseline="text-before-edge">they reach tieir fireAt time. As they belong in a seperate queue </text><text x="0" y="125" font-family="Virgil, Segoe UI Emoji" font-size="20px" fill="#1971c2" text-anchor="start" style="white-space: pre;" direction="ltr" dominant-baseline="text-before-edge">which tuns in parallel.</text></g><g transform="translate(754.8489612757464 547.5964385028185) rotate(0 353.60968017578125 50)"><text x="0" y="0" font-family="Virgil, Segoe UI Emoji" font-size="20px" fill="#1971c2" text-anchor="start" style="white-space: pre;" direction="ltr" dominant-baseline="text-before-edge">In case we have a very high number of timer requests and</text><text x="0" y="25" font-family="Virgil, Segoe UI Emoji" font-size="20px" fill="#1971c2" text-anchor="start" style="white-space: pre;" direction="ltr" dominant-baseline="text-before-edge">we dont want to increase the number of heaps we can increase the</text><text x="0" y="50" font-family="Virgil, Segoe UI Emoji" font-size="20px" fill="#1971c2" text-anchor="start" style="white-space: pre;" direction="ltr" dominant-baseline="text-before-edge">numebr of http workers. this can help reduce the latency in calling the </text><text x="0" y="75" font-family="Virgil, Segoe UI Emoji" font-size="20px" fill="#1971c2" text-anchor="start" style="white-space: pre;" direction="ltr" dominant-baseline="text-before-edge">call back function after fire At time has been passed</text></g></svg>