<svg version="1.1" xmlns="http://www.w3.org/2000/svg" viewBox="0 0 1084.065949002684 750.8162892847206" width="1084.065949002684" height="750.8162892847206" filter="invert(93%) hue-rotate(180deg)">
  <!-- svg-source:excalidraw -->
  
  <defs>
    <style class="style-fonts">
      @font-face {
        font-family: "Virgil";
        src: url("https://file%2B.vscode-resource.vscode-cdn.net/Users/jay/.antigravity-ide/extensions/lrstanley.excalidraw-editor-3.7.4-universal/public//dist/excalidraw-assets/Virgil.woff2");
      }
      @font-face {
        font-family: "Cascadia";
        src: url("https://file%2B.vscode-resource.vscode-cdn.net/Users/jay/.antigravity-ide/extensions/lrstanley.excalidraw-editor-3.7.4-universal/public//dist/excalidraw-assets/Cascadia.woff2");
      }
      @font-face {
        font-family: "Assistant";
        src: url("https://file%2B.vscode-resource.vscode-cdn.net/Users/jay/.antigravity-ide/extensions/lrstanley.excalidraw-editor-3.7.4-universal/public//dist/excalidraw-assets/Assistant-Regular.woff2");
      }
    </style>
    
  </defs>
  <g transform="translate(10 10) rotate(0 295.3125 21.600000000000023)"><text x="0" y="0" font-family="Cascadia, Segoe UI Emoji" font-size="36px" fill="#1e1e1e" text-anchor="start" style="white-space: pre;" direction="ltr" dominant-baseline="text-before-edge">How a single Heap functions?</text></g><g stroke-linecap="round" transform="translate(26.77418654791461 121.84276749086735) rotate(0 109.89609248320585 309.4867608969266)"><path d="M32 0 C72.52 4.26, 109.22 1.25, 187.79 0 C205.91 -2.74, 216.33 9.64, 219.79 32 C218.53 243.62, 220.15 453.05, 219.79 586.97 C222.43 611.59, 210.71 622.5, 187.79 618.97 C133.19 614.19, 69.03 613.82, 32 618.97 C7.76 622.07, 3.42 611.53, 0 586.97 C1.73 418.45, 2.09 250.81, 0 32 C0.76 11.88, 11.64 -2.28, 32 0" stroke="none" stroke-width="0" fill="#ffec99"></path><path d="M32 0 C89.47 0.2, 149.33 -0.38, 187.79 0 M32 0 C88.02 -1.65, 142.51 -0.32, 187.79 0 M187.79 0 C208.54 0.19, 218.08 9.78, 219.79 32 M187.79 0 C207.47 1.54, 221.45 9.9, 219.79 32 M219.79 32 C220.88 177.46, 221.34 323.76, 219.79 586.97 M219.79 32 C220.16 184.41, 220.47 336.06, 219.79 586.97 M219.79 586.97 C219.69 607.89, 207.95 619.89, 187.79 618.97 M219.79 586.97 C219.48 606.33, 208.38 617.59, 187.79 618.97 M187.79 618.97 C141.69 617.05, 93.06 616.08, 32 618.97 M187.79 618.97 C126.63 620.73, 64.64 619.61, 32 618.97 M32 618.97 C9.83 619.07, 0.39 606.58, 0 586.97 M32 618.97 C10.11 618.89, 1.95 608.27, 0 586.97 M0 586.97 C0.51 407.51, 0.92 228.3, 0 32 M0 586.97 C1.9 452.13, 1.87 317.64, 0 32 M0 32 C-1.59 10.16, 11.81 0.68, 32 0 M0 32 C-1.54 10.56, 12.29 1.09, 32 0" stroke="#1971c2" stroke-width="2" fill="none"></path></g><g stroke-linecap="round" transform="translate(42.40024061557335 160.70911361074968) rotate(0 96.9961272941573 80.14817309311331)"><path d="M32 0 C68.15 2.98, 98.32 1.9, 161.99 0 C183.1 -0.03, 193.19 8.96, 193.99 32 C195.55 57.95, 192.16 80.84, 193.99 128.3 C194 151.92, 185.57 161.5, 161.99 160.3 C116.65 163.12, 69.95 164.72, 32 160.3 C12.22 159.59, -1.51 147.76, 0 128.3 C1.62 104.14, 0.8 71.04, 0 32 C-2.71 11.76, 9.36 0.78, 32 0" stroke="none" stroke-width="0" fill="#ffec99"></path><path d="M32 0 C60.67 -2.9, 90.87 -2.77, 161.99 0 M32 0 C82.21 -1.34, 133.28 -0.44, 161.99 0 M161.99 0 C183.43 1.94, 195.44 11.09, 193.99 32 M161.99 0 C184.1 0.62, 192.54 8.6, 193.99 32 M193.99 32 C193.03 66.01, 195.47 100.16, 193.99 128.3 M193.99 32 C194 63.08, 195.11 94.62, 193.99 128.3 M193.99 128.3 C193.08 150.89, 184.98 161.13, 161.99 160.3 M193.99 128.3 C194.19 149.08, 183.17 160.04, 161.99 160.3 M161.99 160.3 C112.91 158.54, 61.98 160.65, 32 160.3 M161.99 160.3 C127.11 159.8, 94.47 159.54, 32 160.3 M32 160.3 C9.9 159.88, 1.41 151.1, 0 128.3 M32 160.3 C8.58 160.62, 0.21 151.82, 0 128.3 M0 128.3 C-0.93 92.52, -2.5 60.57, 0 32 M0 128.3 C0.14 102.33, 0.33 74.55, 0 32 M0 32 C0.78 12.44, 11.98 -0.87, 32 0 M0 32 C0.07 12.06, 8.55 -2.07, 32 0" stroke="#1971c2" stroke-width="2" fill="none"></path></g><g transform="translate(86.23641002398847 215.85728670386288) rotate(0 53.15995788574219 25)"><text x="53.15995788574219" y="0" font-family="Virgil, Segoe UI Emoji" font-size="20px" fill="#1971c2" text-anchor="middle" style="white-space: pre;" direction="ltr" dominant-baseline="text-before-edge">Timer</text><text x="53.15995788574219" y="25" font-family="Virgil, Segoe UI Emoji" font-size="20px" fill="#1971c2" text-anchor="middle" style="white-space: pre;" direction="ltr" dominant-baseline="text-before-edge">fireAt: 102</text></g><g stroke-linecap="round" transform="translate(42.40542205882616 334.6434158427596) rotate(0 96.9961272941573 80.14817309311331)"><path d="M32 0 C85.29 3.69, 133.61 0.94, 161.99 0 C186.37 -1.54, 197.47 9.55, 193.99 32 C195.1 53.88, 189.93 72.5, 193.99 128.3 C192.07 151.84, 186.54 157.9, 161.99 160.3 C123.36 163.01, 85.53 158.98, 32 160.3 C7.57 160.55, 0.45 149.9, 0 128.3 C1.22 88.16, -0.77 49.14, 0 32 C3.26 8.02, 9.26 -0.46, 32 0" stroke="none" stroke-width="0" fill="#ffec99"></path><path d="M32 0 C61.62 -2.06, 89.53 0, 161.99 0 M32 0 C75.43 1.25, 117.3 -0.54, 161.99 0 M161.99 0 C183.16 1.72, 195.77 9.35, 193.99 32 M161.99 0 C185.15 2.12, 193.76 12.05, 193.99 32 M193.99 32 C193.4 63.02, 195.72 92.77, 193.99 128.3 M193.99 32 C194.52 63.23, 193.92 93.45, 193.99 128.3 M193.99 128.3 C194.59 151.3, 185.23 158.97, 161.99 160.3 M193.99 128.3 C194.49 151.32, 182.19 160.2, 161.99 160.3 M161.99 160.3 C130.88 162.34, 102.46 159.89, 32 160.3 M161.99 160.3 C135.4 159.11, 108.41 158.81, 32 160.3 M32 160.3 C10.29 159.36, 0.48 148.14, 0 128.3 M32 160.3 C10.08 160.03, -1.5 151.65, 0 128.3 M0 128.3 C-1.36 94.18, -1.86 64.61, 0 32 M0 128.3 C-1.38 102.71, -0.32 79.05, 0 32 M0 32 C-0.89 9.99, 12.04 -1.43, 32 0 M0 32 C2.28 11.27, 9.52 -2.06, 32 0" stroke="#1971c2" stroke-width="2" fill="none"></path></g><g transform="translate(86.24159146724128 389.79158893587305) rotate(0 53.15995788574219 25)"><text x="53.15995788574219" y="0" font-family="Virgil, Segoe UI Emoji" font-size="20px" fill="#1971c2" text-anchor="middle" style="white-space: pre;" direction="ltr" dominant-baseline="text-before-edge">Timer</text><text x="53.15995788574219" y="25" font-family="Virgil, Segoe UI Emoji" font-size="20px" fill="#1971c2" text-anchor="middle" style="white-space: pre;" direction="ltr" dominant-baseline="text-before-edge">fireAt: 120</text></g><g stroke-linecap="round" transform="translate(39.6176670391211 514.9475212102993) rotate(0 96.9961272941573 80.14817309311331)"><path d="M32 0 C71.6 -1.16, 115.36 1.92, 161.99 0 C185.84 -2.34, 194.32 8.32, 193.99 32 C191.51 65.73, 194.8 101.13, 193.99 128.3 C193.12 150.65, 186.34 162, 161.99 160.3 C129.78 158.38, 96.66 156.89, 32 160.3 C7.58 157.97, 2.38 146.93, 0 128.3 C1.23 107.67, 1.94 85.96, 0 32 C0.04 7.89, 10.94 -2.87, 32 0" stroke="none" stroke-width="0" fill="#ffec99"></path><path d="M32 0 C65.96 -1.4, 98.7 -3.08, 161.99 0 M32 0 C63.47 0.39, 96.13 0.74, 161.99 0 M161.99 0 C183.66 0.75, 194.87 10.6, 193.99 32 M161.99 0 C184.06 -2.03, 194.51 11.99, 193.99 32 M193.99 32 C194.66 68.04, 195.67 105.21, 193.99 128.3 M193.99 32 C193.57 59.8, 193.24 88.74, 193.99 128.3 M193.99 128.3 C194.16 148.59, 181.54 159.45, 161.99 160.3 M193.99 128.3 C192.84 149.98, 184.47 159.21, 161.99 160.3 M161.99 160.3 C131.85 160.88, 103.82 160.44, 32 160.3 M161.99 160.3 C133.56 161.02, 104.63 161.57, 32 160.3 M32 160.3 C9.87 162.24, 0.78 148.28, 0 128.3 M32 160.3 C11.05 161.87, -1.03 148.23, 0 128.3 M0 128.3 C1.17 91.7, -1.27 55.07, 0 32 M0 128.3 C1.5 97.53, 1.03 66.98, 0 32 M0 32 C1.72 12.51, 10.27 -1.86, 32 0 M0 32 C-1.39 8.76, 11.14 0.08, 32 0" stroke="#1971c2" stroke-width="2" fill="none"></path></g><g transform="translate(66.883836752712 570.0956943034128) rotate(0 69.7299575805664 25)"><text x="69.7299575805664" y="0" font-family="Virgil, Segoe UI Emoji" font-size="20px" fill="#1971c2" text-anchor="middle" style="white-space: pre;" direction="ltr" dominant-baseline="text-before-edge">Timer</text><text x="69.7299575805664" y="25" font-family="Virgil, Segoe UI Emoji" font-size="20px" fill="#1971c2" text-anchor="middle" style="white-space: pre;" direction="ltr" dominant-baseline="text-before-edge">    fireAt 135</text></g><g transform="translate(289.3266301550276 260.2441409951218) rotate(0 392.3696594238282 187.5)"><text x="0" y="0" font-family="Virgil, Segoe UI Emoji" font-size="20px" fill="#1e1e1e" text-anchor="start" style="white-space: pre;" direction="ltr" dominant-baseline="text-before-edge">The min heap will be sorted on the fireAT time. </text><text x="0" y="25" font-family="Virgil, Segoe UI Emoji" font-size="20px" fill="#1e1e1e" text-anchor="start" style="white-space: pre;" direction="ltr" dominant-baseline="text-before-edge">the fireAt time simply means the time at which the timer </text><text x="0" y="50" font-family="Virgil, Segoe UI Emoji" font-size="20px" fill="#1e1e1e" text-anchor="start" style="white-space: pre;" direction="ltr" dominant-baseline="text-before-edge">expires.</text><text x="0" y="75" font-family="Virgil, Segoe UI Emoji" font-size="20px" fill="#1e1e1e" text-anchor="start" style="white-space: pre;" direction="ltr" dominant-baseline="text-before-edge"></text><text x="0" y="100" font-family="Virgil, Segoe UI Emoji" font-size="20px" fill="#1e1e1e" text-anchor="start" style="white-space: pre;" direction="ltr" dominant-baseline="text-before-edge"></text><text x="0" y="125" font-family="Virgil, Segoe UI Emoji" font-size="20px" fill="#1e1e1e" text-anchor="start" style="white-space: pre;" direction="ltr" dominant-baseline="text-before-edge">The top task will always be the task that will expire the first. </text><text x="0" y="150" font-family="Virgil, Segoe UI Emoji" font-size="20px" fill="#1e1e1e" text-anchor="start" style="white-space: pre;" direction="ltr" dominant-baseline="text-before-edge"></text><text x="0" y="175" font-family="Virgil, Segoe UI Emoji" font-size="20px" fill="#1e1e1e" text-anchor="start" style="white-space: pre;" direction="ltr" dominant-baseline="text-before-edge">As soon as the fireAt - currentTime &lt;= 0 we will remove that timer </text><text x="0" y="200" font-family="Virgil, Segoe UI Emoji" font-size="20px" fill="#1e1e1e" text-anchor="start" style="white-space: pre;" direction="ltr" dominant-baseline="text-before-edge">from the Heap and pass it to the event handler ( which will be responsible for </text><text x="0" y="225" font-family="Virgil, Segoe UI Emoji" font-size="20px" fill="#1e1e1e" text-anchor="start" style="white-space: pre;" direction="ltr" dominant-baseline="text-before-edge">sending an request on the call back handler ) </text><text x="0" y="250" font-family="Virgil, Segoe UI Emoji" font-size="20px" fill="#1e1e1e" text-anchor="start" style="white-space: pre;" direction="ltr" dominant-baseline="text-before-edge"></text><text x="0" y="275" font-family="Virgil, Segoe UI Emoji" font-size="20px" fill="#1e1e1e" text-anchor="start" style="white-space: pre;" direction="ltr" dominant-baseline="text-before-edge"></text><text x="0" y="300" font-family="Virgil, Segoe UI Emoji" font-size="20px" fill="#1e1e1e" text-anchor="start" style="white-space: pre;" direction="ltr" dominant-baseline="text-before-edge"></text><text x="0" y="325" font-family="Virgil, Segoe UI Emoji" font-size="20px" fill="#1e1e1e" text-anchor="start" style="white-space: pre;" direction="ltr" dominant-baseline="text-before-edge"></text><text x="0" y="350" font-family="Virgil, Segoe UI Emoji" font-size="20px" fill="#1e1e1e" text-anchor="start" style="white-space: pre;" direction="ltr" dominant-baseline="text-before-edge"></text></g><g stroke-linecap="round"><g transform="translate(507.67341884053144 162.73352619176148) rotate(0 -132.99843097097778 29.43724984183848)"><path d="M0.95 -0.64 C-43.3 9.17, -220.85 49.73, -265.48 59.5 M-0.01 1.64 C-44.38 11.04, -222.09 48.17, -266.15 57.71" stroke="#1971c2" stroke-width="2" fill="none"></path></g><g transform="translate(507.67341884053144 162.73352619176148) rotate(0 -132.99843097097778 29.43724984183848)"><path d="M-240.7 41.82 C-249.34 47.67, -254.89 50.21, -266.15 57.71 M-240.7 41.82 C-245.85 45.86, -252.42 50.08, -266.15 57.71" stroke="#1971c2" stroke-width="2" fill="none"></path></g><g transform="translate(507.67341884053144 162.73352619176148) rotate(0 -132.99843097097778 29.43724984183848)"><path d="M-236.44 61.89 C-246.47 61.73, -253.31 58.23, -266.15 57.71 M-236.44 61.89 C-242.69 61.39, -250.23 61.03, -266.15 57.71" stroke="#1971c2" stroke-width="2" fill="none"></path></g></g><mask></mask><g transform="translate(448.09532386468175 137.88295796289685) rotate(0 85.03993225097662 12.5)"><text x="0" y="0" font-family="Virgil, Segoe UI Emoji" font-size="20px" fill="#1971c2" text-anchor="start" style="white-space: pre;" direction="ltr" dominant-baseline="text-before-edge">Current time: 100</text></g></svg>